
<svg width="460px" height="512px" viewBox="0 0 460 512" version="1.1" xmlns="http://www.w3.org/2000/svg" xmlns:xlink="http://www.w3.org/1999/xlink">
    <!-- Generator: Sketch 47.1 (45422) - http://www.bohemiancoding.com/sketch -->
    <desc>Created with Sketch.</desc>
    <defs></defs>
    <g id="Page-1" stroke="none" stroke-width="1" fill="none" fill-rule="evenodd">
        <g id="003-prisoner-1">
            <path d="M300.607,303.663 L300.607,291.345 L159.388,291.345 L159.388,303.663 C159.388,311.936 153.641,319.1 145.565,320.895 L48.897,342.377 C20.629,348.659 0.516,373.731 0.516,402.689 L0.516,494.347 C0.516,504.097 8.419,511.999 18.168,511.999 L441.826,511.999 C451.576,511.999 459.478,504.096 459.478,494.347 L459.478,402.689 C459.478,373.731 439.365,348.658 411.097,342.377 L314.429,320.895 C306.354,319.1 300.607,311.937 300.607,303.663 Z" id="Shape" fill="#CCE3E9" fill-rule="nonzero"></path>
            <g id="Group" transform="translate(0.000000, 360.000000)" fill-rule="nonzero" fill="#ECB97F">
                <path d="M459.478,134.348 L459.478,42.689 C459.478,26.679 453.177,11.998 442.902,0.882 L395.553,48.231 C385.621,58.163 380.042,71.633 380.042,85.677 L380.042,151.999 L441.825,151.999 C451.576,152 459.478,144.096 459.478,134.348 Z" id="Shape"></path>
                <path d="M0.516,134.348 L0.516,42.689 C0.516,26.679 6.817,11.998 17.092,0.882 L64.441,48.231 C74.373,58.163 79.952,71.633 79.952,85.677 L79.952,151.999 L18.169,151.999 C8.42,152 0.516,144.096 0.516,134.348 Z" id="Shape"></path>
            </g>
            <path d="M123.747,325.743 C140.825,367.673 181.93,397.258 229.997,397.258 C278.064,397.258 319.17,367.673 336.247,325.743 L314.43,320.894 C306.353,319.099 300.607,311.935 300.607,303.662 L300.607,264.865 L159.388,264.865 L159.388,303.662 C159.388,311.937 153.642,319.099 145.565,320.894 L123.747,325.743 Z" id="Shape" fill-opacity="0.979874321" fill="#9CCDDA" fill-rule="nonzero"></path>
            <path d="M145.565,320.895 L124.725,325.527 L124.124,326.578 C124.139,326.613 124.156,326.647 124.171,326.683 C230.037,370.722 300.607,273.697 300.607,273.697 L300.607,264.871 L159.388,264.871 L159.388,303.663 C159.388,311.937 153.642,319.1 145.565,320.895 Z" id="Shape" fill-opacity="0.739668252" fill="#80B7BD" fill-rule="nonzero"></path>
            <g id="Group" transform="translate(0.000000, 353.000000)" fill-rule="nonzero" fill="#0B4C58">
                <path d="M459.478,106.043 L0.516,106.043 L0.516,130.315 C0.516,131.534 1.503,132.522 2.723,132.522 L457.272,132.522 C458.491,132.522 459.479,131.535 459.479,130.315 L459.479,106.043 L459.478,106.043 Z" id="Shape"></path>
                <rect id="Rectangle-path" x="0.521" y="53.082" width="458.962" height="26.479"></rect>
                <path d="M139.685,0.128 L25.759,0.128 C16.587,6.899 9.442,16.016 5.158,26.607 L169.01,26.607 C157.771,19.518 147.844,10.563 139.685,0.128 Z" id="Shape"></path>
                <path d="M290.985,26.607 L454.838,26.607 C450.554,16.017 443.408,6.899 434.237,0.128 L320.31,0.128 C312.15,10.563 302.224,19.518 290.985,26.607 Z" id="Shape"></path>
            </g>
            <g id="Group" transform="translate(0.000000, 249.000000)">
                <path d="M424.178,130.607 L454.838,130.607 C452.021,123.645 447.868,117.41 442.817,111.969 L424.178,130.607 Z" id="Shape" fill="#08768A" fill-rule="nonzero"></path>
                <text id="08768A" font-family="Helvetica" font-size="12" font-weight="normal" fill="#000000">
                    <tspan x="209" y="11">08768A</tspan>
                </text>
                <path d="M395.554,159.232 C388.781,166.005 384.092,174.441 381.758,183.565 L459.479,183.565 L459.479,157.086 L397.7,157.086 L395.554,159.232 Z" id="Shape" fill="#08768A" fill-rule="nonzero"></path>
                <rect id="Rectangle-path" fill="#08768A" fill-rule="nonzero" x="380.047" y="210.04" width="79.436" height="26.479"></rect>
                <path d="M35.816,130.607 L5.156,130.607 C7.973,123.645 12.126,117.41 17.177,111.969 L35.816,130.607 Z" id="Shape" fill="#08768A" fill-rule="nonzero"></path>
                <path d="M64.441,159.232 C71.214,166.005 75.903,174.441 78.237,183.565 L0.516,183.565 L0.516,157.086 L62.295,157.086 L64.441,159.232 Z" id="Shape" fill="#08768A" fill-rule="nonzero"></path>
                <rect id="Rectangle-path" fill="#08768A" fill-rule="nonzero" x="0.521" y="210.04" width="79.436" height="26.479"></rect>
            </g>
            <path d="M344.738,145.822 L344.738,105.994 L115.257,105.994 L115.257,145.81 C109.924,149.837 106.424,156.17 106.424,163.369 L106.424,181.021 C106.424,191.695 114.005,200.596 124.076,202.642 L124.076,218.876 C124.076,236.582 132.245,253.117 145.844,262.939 L185.086,291.281 C193.116,297.08 202.551,300.176 212.202,300.176 L247.778,300.176 C257.429,300.176 266.864,297.081 274.894,291.281 L314.136,262.939 C327.735,253.118 335.904,236.582 335.904,218.876 L335.904,202.642 C345.976,200.597 353.556,191.696 353.556,181.021 L353.556,163.369 C353.557,156.177 350.064,149.851 344.738,145.822 Z" id="Shape" fill-opacity="0.983469203" fill="#B4D7E0" fill-rule="nonzero"></path>
            <g id="Group" transform="translate(177.000000, 158.000000)" fill-rule="nonzero" fill="#105662">
                <path d="M8.86,27.435 L8.86,27.435 C4.006,27.435 0.034,23.463 0.034,18.609 L0.034,9.783 C0.034,4.929 4.006,0.957 8.86,0.957 L8.86,0.957 C13.714,0.957 17.686,4.929 17.686,9.783 L17.686,18.609 C17.686,23.463 13.714,27.435 8.86,27.435 Z" id="Shape"></path>
                <path d="M97.122,27.435 L97.122,27.435 C92.268,27.435 88.296,23.463 88.296,18.609 L88.296,9.783 C88.296,4.929 92.268,0.957 97.122,0.957 L97.122,0.957 C101.976,0.957 105.948,4.929 105.948,9.783 L105.948,18.609 C105.948,23.463 101.976,27.435 97.122,27.435 Z" id="Shape"></path>
            </g>
            <g id="Group" transform="translate(163.000000, 150.000000)" fill-rule="nonzero">
                <path d="M84.643,106.042 L49.338,106.042 C44.464,106.042 40.512,102.094 40.512,97.216 C40.512,92.338 44.464,88.39 49.338,88.39 L84.643,88.39 C89.517,88.39 93.469,92.338 93.469,97.216 C93.469,102.094 89.517,106.042 84.643,106.042 Z" id="Shape" fill="#0B4C58"></path>
                <path d="M36.106,17.783 L9.627,17.783 C4.753,17.783 0.801,13.831 0.801,8.957 L0.801,8.957 C0.801,4.083 4.753,0.131 9.627,0.131 L36.106,0.131 C40.98,0.131 44.932,4.083 44.932,8.957 L44.932,8.957 C44.932,13.831 40.981,17.783 36.106,17.783 Z" id="Shape" fill="#ECB97F"></path>
                <path d="M124.368,17.783 L97.889,17.783 C93.015,17.783 89.063,13.831 89.063,8.957 L89.063,8.957 C89.063,4.083 93.015,0.131 97.889,0.131 L124.368,0.131 C129.242,0.131 133.194,4.083 133.194,8.957 L133.194,8.957 C133.194,13.831 129.243,17.783 124.368,17.783 Z" id="Shape" fill="#ECB97F"></path>
            </g>
            <path d="M229.997,0 C186.252,0 147.194,6.053 120.902,15.558 C117.455,16.804 115.257,20.155 115.257,23.819 L115.257,132.473 L344.738,132.473 L344.738,23.82 C344.738,20.156 342.538,16.804 339.093,15.559 C312.801,6.053 273.742,0 229.997,0 Z" id="Shape" fill="#CCE3E9" fill-rule="nonzero"></path>
            <g id="Group" transform="translate(115.000000, 26.000000)" fill-rule="nonzero">
                <rect id="Rectangle-path" fill="#105662" x="0.261" y="53.513" width="229.481" height="26.479"></rect>
                <rect id="Rectangle-path" fill="#0B4C58" x="0.261" y="0.556" width="229.481" height="26.479"></rect>
            </g>
        </g>
    </g>
</svg>
