
<svg width="512px" height="512px" viewBox="0 0 512 512" version="1.1" xmlns="http://www.w3.org/2000/svg" xmlns:xlink="http://www.w3.org/1999/xlink">
    <!-- Generator: Sketch 47.1 (45422) - http://www.bohemiancoding.com/sketch -->
    <desc>Created with Sketch.</desc>
    <defs></defs>
    <g id="Page-1" stroke="none" stroke-width="1" fill="none" fill-rule="evenodd">
        <g id="001-handcuffs-1" fill-rule="nonzero">
            <g id="Group" transform="translate(91.000000, 91.000000)">
                <path d="M30.731,131.739 C13.829,131.739 0.078,117.988 0.078,101.086 C0.078,84.184 13.829,70.433 30.731,70.433 C47.633,70.433 61.384,84.184 61.384,101.086 C61.384,117.988 47.633,131.739 30.731,131.739 Z M30.731,86.104 C22.47,86.104 15.749,92.825 15.749,101.086 C15.749,109.347 22.47,116.068 30.731,116.068 C38.992,116.068 45.713,109.347 45.713,101.086 C45.713,92.825 38.992,86.104 30.731,86.104 Z" id="Shape" fill="#ECB980"></path>
                <path d="M30.731,91.518 C13.829,91.518 0.078,77.767 0.078,60.865 C0.078,43.963 13.829,30.212 30.731,30.212 C47.633,30.212 61.384,43.963 61.384,60.865 C61.384,77.767 47.633,91.518 30.731,91.518 Z M30.731,45.882 C22.47,45.882 15.749,52.603 15.749,60.864 C15.749,69.125 22.47,75.846 30.731,75.846 C38.992,75.846 45.713,69.125 45.713,60.864 C45.713,52.603 38.992,45.882 30.731,45.882 Z" id="Shape" fill="#ECB980"></path>
                <path d="M60.897,61.351 C43.995,61.351 30.244,47.6 30.244,30.698 C30.244,13.796 43.995,0.045 60.897,0.045 C77.799,0.045 91.55,13.796 91.55,30.698 C91.55,47.6 77.8,61.351 60.897,61.351 Z M60.897,15.716 C52.636,15.716 45.915,22.437 45.915,30.698 C45.915,38.959 52.636,45.68 60.897,45.68 C69.158,45.68 75.879,38.959 75.879,30.698 C75.879,22.437 69.159,15.716 60.897,15.716 Z" id="Shape" fill="#EBB87F"></path>
                <path d="M101.118,61.351 C84.216,61.351 70.465,47.6 70.465,30.698 C70.465,13.796 84.216,0.045 101.118,0.045 C118.02,0.045 131.771,13.796 131.771,30.698 C131.771,47.6 118.021,61.351 101.118,61.351 Z M101.118,15.716 C92.857,15.716 86.136,22.437 86.136,30.698 C86.136,38.959 92.857,45.68 101.118,45.68 C109.379,45.68 116.1,38.959 116.1,30.698 C116.1,22.437 109.38,15.716 101.118,15.716 Z" id="Shape" fill="#ECB980"></path>
            </g>
            <path d="M387.542,0.053 C360.263,-0.741 334.959,7.429 314.304,21.826 C314.283,21.857 314.262,21.868 314.241,21.878 C309.696,25.075 304.504,27.206 299.008,28.063 L237.837,37.664 C224.61,39.743 214.873,51.121 214.873,64.494 L214.873,178.896 C214.873,192.279 224.61,203.657 237.837,205.736 L292.186,214.251 C295.331,214.742 298.11,210.072 300.314,211.838 C321.147,228.554 355.07,243.39 383.864,243.39 C446.049,243.39 497.347,196.731 504.65,136.521 L504.66,106.87 C497.577,47.663 448.515,1.85 387.542,0.053 Z M383.864,202.801 C339.075,202.801 302.759,166.495 302.759,121.696 C302.759,76.907 339.075,40.591 383.864,40.591 C428.653,40.591 464.969,76.907 464.969,121.696 C464.97,166.495 428.654,202.801 383.864,202.801 Z" id="Shape" fill="#66A5AD"></path>
            <circle id="Oval" fill="#05434F" cx="488.496" cy="121.694" r="23.472"></circle>
            <path d="M221.601,314.33 C221.57,314.309 221.559,314.288 221.549,314.267 C218.352,309.722 216.221,304.53 215.364,299.034 L205.763,237.863 C203.684,224.636 192.306,214.899 178.933,214.899 L64.531,214.899 C51.148,214.899 39.77,224.636 37.691,237.863 L29.176,292.212 C28.685,295.357 33.355,298.136 31.589,300.34 C23.294,310.673 15.468,324.223 9.68,338.787 C3.808,353.57 0.037,369.378 0.037,383.89 C0.037,446.075 46.696,497.373 106.906,504.676 L136.557,504.686 C195.764,497.602 241.577,448.54 243.374,387.568 C244.168,360.289 235.998,334.985 221.601,314.33 Z M121.732,464.996 C76.932,464.996 40.627,428.68 40.627,383.891 C40.627,367.206 45.673,351.681 54.324,338.788 C68.867,317.078 93.628,302.785 121.732,302.785 C166.521,302.785 202.837,339.101 202.837,383.89 C202.837,428.679 166.521,464.996 121.732,464.996 Z" id="Shape" fill="#73AEB5"></path>
            <circle id="Oval" fill="#05434F" cx="121.73" cy="488.533" r="23.472"></circle>
            <g id="Group" transform="translate(160.000000, 160.000000)" fill="#ECB980">
                <path d="M95.065,15.731 C88.101,15.731 84.565,6.793 89.797,2.087 C92.328,-0.191 96.159,-0.579 99.085,1.172 C101.943,2.882 103.448,6.354 102.7,9.607 C101.891,13.131 98.705,15.731 95.065,15.731 Z" id="Shape"></path>
                <path d="M7.921,102.864 C0.85,102.864 -2.542,93.846 2.718,89.174 C8.08,84.412 16.704,89.113 15.672,96.162 C15.114,99.965 11.773,102.864 7.921,102.864 Z" id="Shape"></path>
            </g>
            <g id="Group" transform="translate(9.000000, 121.000000)" fill="#C4DFE6">
                <path d="M112.732,181.785 C84.628,181.785 59.867,196.077 45.324,217.788 L0.681,217.788 C6.469,203.224 14.294,189.673 22.59,179.341 L112.732,181.785 Z" id="Shape"></path>
                <path d="M293.759,0.695 C293.759,28.799 308.051,53.56 329.762,68.103 L329.762,112.746 C315.198,106.958 301.647,99.133 291.315,90.837 L293.759,0.695 Z" id="Shape"></path>
            </g>
        </g>
    </g>
</svg>
