
<svg width="512px" height="512px" viewBox="0 0 512 512" version="1.1" xmlns="http://www.w3.org/2000/svg" xmlns:xlink="http://www.w3.org/1999/xlink">
    <!-- Generator: Sketch 47.1 (45422) - http://www.bohemiancoding.com/sketch -->
    <desc>Created with Sketch.</desc>
    <defs></defs>
    <g id="Page-1" stroke="none" stroke-width="1" fill="none" fill-rule="evenodd">
        <g id="008-gps-1" fill-rule="nonzero">
            <path d="M426.7,0 L85.3,0 C38.4,0 0,38.4 0,85.3 L0,426.6 C0,473.5 38.4,511.9 85.3,511.9 L426.6,511.9 C473.5,511.9 511.9,473.5 511.9,426.6 L511.9,85.3 C512,38.4 473.6,0 426.7,0 Z" id="Shape" fill="#CCE3E9"></path>
            <path d="M426.7,0 L85.3,0 C38.4,0 0,38.4 0,85.3 L0,113.2 C149.3,118.5 241.3,198.3 291.5,268.7 C351.2,235.6 427.8,212.7 512,205.2 L512,85.2 C512,38.4 473.6,0 426.7,0 Z" id="Shape" fill="#CCE3E9"></path>
            <path d="M275.2,417.1 C249.6,447 234.7,480 226.1,512 L426.6,512 C473.5,512 511.9,473.6 511.9,426.7 L511.9,311.5 C404.3,322.1 325.3,357.3 275.2,417.1 Z" id="Shape" fill="#CCE3E9"></path>
            <path d="M295.5,265.6 C245.3,195.2 149.3,118.4 0,113.1 L0,219.8 C119.5,225.1 182.4,291.3 210.1,330.7 C204.8,337.1 198.4,343.5 193,349.9 C149.3,402.1 128,459.7 117.3,512 L227.2,512 C235.7,480 250.7,446.9 276.3,417.1 C325.4,358.4 404.3,322.2 512,311.5 L512,204.9 C425.6,212.4 354.1,232.5 295.5,265.6 Z" id="Shape" fill="#ECB980"></path>
            <g id="Group" transform="translate(15.000000, 161.000000)" fill="#FFFFFF">
                <path d="M217.5,120.6 C211.1,112.1 203.6,104.6 196.2,97.1 L203.7,89.6 C211.2,97.1 218.6,105.6 226.1,113.1 L217.5,120.6 Z M165.3,70.5 C156.8,64.1 148.2,58.8 138.6,53.4 L143.9,43.8 C153.5,49.1 162,55.5 170.6,61.9 L165.3,70.5 Z M101.3,34.2 C91.7,29.9 82.1,26.7 71.4,23.5 L74.6,12.8 C85.3,16 94.9,19.2 105.5,23.5 L101.3,34.2 Z M30.9,15 C21.3,12.9 10.6,11.8 0,10.7 L1.1,0 C11.8,1.1 22.4,2.1 33.1,4.3 L30.9,15 Z" id="Shape"></path>
                <path d="M189.8,255 C184.5,264.6 179.1,274.2 174.9,283.8 L184.5,288.1 C188.8,278.5 194.1,268.9 199.4,260.4 L189.8,255 Z" id="Shape"></path>
                <path d="M151.4,351 L162.1,351 C164.2,343.5 166.4,335 168.5,327.5 L157.8,324.3 C155.7,332.9 153.5,342.5 151.4,351 Z" id="Shape"></path>
                <path d="M237.8,195.3 C230.3,202.8 222.9,211.3 215.4,219.8 L223.9,226.2 C230.3,217.7 237.8,210.2 245.2,202.7 L237.8,195.3 Z" id="Shape"></path>
                <path d="M497,91.8 C492.7,91.8 488.5,92.9 484.2,92.9 L485.3,103.6 C489.6,103.6 492.8,102.5 497,102.5 L497,91.8 L497,91.8 Z" id="Shape"></path>
                <path d="M298.6,149.4 C289,154.7 279.4,161.1 270.9,167.5 L277.3,176 C285.8,169.6 294.4,164.3 304,158.9 L298.6,149.4 Z" id="Shape"></path>
                <path d="M409.5,105.7 L411.6,116.4 C422.3,114.3 431.9,112.1 442.5,110 L440.4,99.3 C430.9,100.3 420.2,103.5 409.5,105.7 Z" id="Shape"></path>
                <path d="M367.9,117.4 C357.2,120.6 347.6,124.9 337,129.1 L341.3,138.7 C350.9,134.4 360.5,130.2 371.2,127 L367.9,117.4 Z" id="Shape"></path>
                <path d="M242.1,135.5 C246.4,141.9 251.7,149.4 254.9,155.8 L245.3,161.1 C241,154.7 236.8,147.2 232.5,140.8" id="Shape"></path>
            </g>
            <path d="M301.9,17.1 C247.5,17.1 202.7,63 202.7,117.4 C202.7,171.8 303,293.4 303,293.4 C303,293.4 403.3,172.9 403.3,117.4 C403.3,61.9 357.3,17.1 301.9,17.1 Z" id="Shape" fill="#0B4C58"></path>
            <circle id="Oval" fill="#FFFFFF" cx="301.9" cy="117.3" r="57.6"></circle>
        </g>
    </g>
</svg>
