
<svg width="367px" height="471px" viewBox="0 0 367 471" version="1.1" xmlns="http://www.w3.org/2000/svg" xmlns:xlink="http://www.w3.org/1999/xlink">
    <!-- Generator: Sketch 47.1 (45422) - http://www.bohemiancoding.com/sketch -->
    <desc>Created with Sketch.</desc>
    <defs>
        <filter x="-1.9%" y="-1.1%" width="103.9%" height="103.0%" filterUnits="objectBoundingBox" id="filter-1">
            <feOffset dx="0" dy="2" in="SourceAlpha" result="shadowOffsetOuter1"></feOffset>
            <feGaussianBlur stdDeviation="2" in="shadowOffsetOuter1" result="shadowBlurOuter1"></feGaussianBlur>
            <feColorMatrix values="0 0 0 0 0   0 0 0 0 0   0 0 0 0 0  0 0 0 0.5 0" type="matrix" in="shadowBlurOuter1" result="shadowMatrixOuter1"></feColorMatrix>
            <feMerge>
                <feMergeNode in="shadowMatrixOuter1"></feMergeNode>
                <feMergeNode in="SourceGraphic"></feMergeNode>
            </feMerge>
        </filter>
    </defs>
    <g id="Page-1" stroke="none" stroke-width="1" fill="none" fill-rule="evenodd">
        <g id="001-fingerprint" filter="url(#filter-1)" transform="translate(4.000000, 2.000000)" fill-rule="nonzero" fill="#003B46">
            <path d="M207.476,280.364 L207.476,247.5 C207.476,234.542 196.934,224 183.976,224 C171.018,224 160.476,234.542 160.476,247.5 L160.476,277.172 C160.476,312.929 147.303,347.259 123.382,373.837 L90.401,410.483 C87.63,413.562 87.88,418.304 90.959,421.076 C94.037,423.847 98.779,423.597 101.551,420.518 L134.532,383.872 C160.935,354.534 175.476,316.641 175.476,277.172 L175.476,247.5 C175.476,242.813 179.289,239 183.976,239 C188.663,239 192.476,242.813 192.476,247.5 L192.476,280.364 C192.476,324.367 176.175,366.531 146.575,399.091 L114.426,434.455 C111.64,437.519 111.866,442.264 114.931,445.05 C116.368,446.357 118.173,447 119.973,447 C122.013,447 124.045,446.173 125.525,444.545 L157.673,409.181 C189.789,373.854 207.476,328.106 207.476,280.364 Z" id="Shape"></path>
            <path d="M239.476,247.5 C239.476,216.897 214.579,192 183.976,192 C153.373,192 128.476,216.897 128.476,247.5 L128.476,277.172 C128.476,305.011 118.22,331.738 99.597,352.43 L76.15,378.483 C73.379,381.562 73.629,386.304 76.708,389.076 C79.787,391.847 84.528,391.595 87.3,388.518 L110.747,362.465 C131.853,339.014 143.477,308.723 143.477,277.172 L143.477,247.5 C143.477,225.168 161.645,207 183.977,207 C206.309,207 224.477,225.168 224.477,247.5 L224.477,280.364 C224.477,332.343 205.221,382.153 170.254,420.616 L143.129,450.455 C140.342,453.519 140.568,458.264 143.633,461.05 C145.07,462.357 146.875,463 148.675,463 C150.715,463 152.747,462.173 154.227,460.545 L181.353,430.706 C218.834,389.476 239.476,336.084 239.476,280.364 L239.476,247.5 L239.476,247.5 Z" id="Shape"></path>
            <path d="M271.476,247.5 C271.476,199.252 232.224,160 183.976,160 C135.728,160 96.476,199.252 96.476,247.5 L96.476,277.172 C96.476,297.092 89.137,316.217 75.811,331.023 L54.699,354.481 C51.928,357.56 52.178,362.302 55.257,365.074 C58.335,367.845 63.078,367.593 65.849,364.516 L86.961,341.058 C102.77,323.493 111.476,300.804 111.476,277.172 L111.476,247.5 C111.476,207.523 143.999,175 183.976,175 C223.953,175 256.476,207.523 256.476,247.5 L256.476,280.364 C256.476,340.322 234.264,397.776 193.931,442.141 L186.424,450.399 C183.638,453.464 183.864,458.208 186.929,460.994 C188.366,462.3 190.172,462.944 191.971,462.944 C194.011,462.944 196.043,462.117 197.523,460.489 L205.029,452.231 C247.877,405.098 271.475,344.062 271.475,280.364 L271.475,247.5 L271.476,247.5 Z" id="Shape"></path>
            <path d="M64.476,247.5 C64.476,251.643 67.834,255 71.976,255 C76.118,255 79.476,251.643 79.476,247.5 C79.476,222.245 88.645,197.849 105.295,178.805 C121.79,159.938 144.429,147.6 169.041,144.064 C173.141,143.475 175.987,139.673 175.398,135.574 C174.809,131.474 171.004,128.632 166.908,129.217 C138.748,133.263 112.856,147.367 94.002,168.933 C74.962,190.71 64.476,218.613 64.476,247.5 Z" id="Shape"></path>
            <path d="M79.476,277.172 C79.476,273.029 76.118,269.672 71.976,269.672 C67.834,269.672 64.476,273.029 64.476,277.172 C64.476,289.174 60.055,300.695 52.027,309.615 L33.248,330.482 C30.477,333.56 30.727,338.302 33.806,341.074 C35.24,342.364 37.033,342.999 38.821,342.999 C40.873,342.999 42.918,342.161 44.398,340.516 L63.177,319.65 C73.687,307.971 79.476,292.886 79.476,277.172 Z" id="Shape"></path>
            <path d="M288.755,344.123 C284.746,343.079 280.65,345.474 279.6,349.48 C276.831,360.059 273.387,370.576 269.36,380.738 C267.834,384.589 269.719,388.948 273.57,390.473 C274.477,390.832 275.411,391.002 276.331,391.002 C279.316,391.002 282.139,389.207 283.306,386.263 C287.555,375.538 291.19,364.441 294.112,353.277 C295.16,349.271 292.761,345.172 288.755,344.123 Z" id="Shape"></path>
            <path d="M263.791,158.632 C260.71,155.861 255.968,156.115 253.199,159.195 C250.43,162.275 250.682,167.017 253.762,169.786 C275.823,189.618 288.475,217.943 288.475,247.5 L288.475,280.364 C288.475,292.837 287.615,305.406 285.918,317.723 C285.353,321.827 288.221,325.611 292.324,326.176 C292.671,326.224 293.016,326.247 293.357,326.247 C297.045,326.247 300.26,323.525 300.777,319.769 C302.567,306.776 303.475,293.518 303.475,280.363 L303.475,247.5 C303.476,213.695 289.011,181.304 263.791,158.632 Z" id="Shape"></path>
            <path d="M228.729,153.076 C229.77,153.572 230.867,153.806 231.948,153.806 C234.751,153.806 237.44,152.227 238.725,149.528 C240.506,145.789 238.917,141.313 235.178,139.533 C224.372,134.388 212.887,130.917 201.042,129.216 C196.936,128.631 193.141,131.474 192.552,135.573 C191.963,139.672 194.809,143.474 198.909,144.063 C209.257,145.55 219.289,148.582 228.729,153.076 Z" id="Shape"></path>
            <path d="M183.976,96 C181.17,96 178.332,96.078 175.539,96.232 C171.403,96.46 168.235,99.998 168.463,104.133 C168.692,108.269 172.226,111.454 176.365,111.208 C178.884,111.069 181.444,110.999 183.975,110.999 C259.241,110.999 320.475,172.232 320.475,247.499 L320.475,280.363 C320.475,284.506 323.833,287.863 327.975,287.863 C332.117,287.863 335.475,284.506 335.475,280.363 L335.475,247.5 C335.476,163.963 267.513,96 183.976,96 Z" id="Shape"></path>
            <path d="M101.972,136.693 C103.449,136.693 104.942,136.257 106.247,135.35 C118.725,126.673 132.429,120.195 146.98,116.092 C150.967,114.968 153.288,110.824 152.164,106.838 C151.04,102.852 146.895,100.534 142.91,101.654 C126.75,106.21 111.534,113.403 97.684,123.033 C94.283,125.398 93.443,130.072 95.808,133.472 C97.265,135.57 99.599,136.693 101.972,136.693 Z" id="Shape"></path>
            <path d="M47.476,277.172 L47.476,247.5 C47.476,212.61 60.689,179.382 84.681,153.935 C87.522,150.921 87.383,146.175 84.369,143.333 C81.355,140.491 76.608,140.632 73.767,143.645 C47.14,171.886 32.476,208.77 32.476,247.5 L32.476,277.172 C32.476,281.255 30.972,285.174 28.242,288.207 L18.994,298.482 C16.223,301.561 16.473,306.303 19.552,309.074 C20.985,310.365 22.779,311 24.567,311 C26.619,311 28.663,310.163 30.144,308.518 L39.392,298.243 C44.605,292.449 47.476,284.966 47.476,277.172 Z" id="Shape"></path>
            <path d="M357.951,189.104 C349.725,164.658 336.652,142.573 319.095,123.462 C316.292,120.412 311.548,120.21 308.498,123.013 C305.448,125.816 305.247,130.56 308.049,133.611 C324.176,151.165 336.183,171.445 343.735,193.887 C344.789,197.02 347.711,198.997 350.842,198.997 C351.635,198.997 352.442,198.87 353.235,198.603 C357.16,197.282 359.272,193.029 357.951,189.104 Z" id="Shape"></path>
            <path d="M243.247,73.822 C239.33,72.481 235.064,74.57 233.723,78.49 C232.382,82.409 234.472,86.673 238.391,88.013 C254.929,93.672 270.456,101.87 284.541,112.382 C285.888,113.387 287.461,113.871 289.021,113.871 C291.307,113.871 293.565,112.83 295.038,110.856 C297.516,107.537 296.832,102.837 293.513,100.36 C278.176,88.916 261.264,79.986 243.247,73.822 Z" id="Shape"></path>
            <path d="M67.442,125.908 C98.991,95.659 140.377,79 183.976,79 C192.072,79 200.213,79.583 208.172,80.731 C212.275,81.329 216.075,78.479 216.667,74.379 C217.259,70.279 214.416,66.477 210.316,65.885 C201.648,64.635 192.786,64 183.976,64 C136.489,64 91.416,82.141 57.061,115.081 C22.813,147.919 2.784,191.986 0.664,239.165 C0.478,243.303 3.682,246.809 7.819,246.994 C7.934,247 8.048,247.002 8.162,247.002 C12.149,247.002 15.468,243.862 15.649,239.839 C17.594,196.527 35.988,156.066 67.442,125.908 Z" id="Shape"></path>
            <path d="M183.976,32 C167.204,32 150.491,33.944 134.302,37.778 C130.271,38.732 127.778,42.774 128.732,46.804 C129.687,50.834 133.729,53.328 137.759,52.373 C152.817,48.809 168.366,47 183.976,47 C238.972,47 290.308,68.911 328.526,108.695 C329.999,110.228 331.965,111 333.936,111 C335.805,111 337.677,110.306 339.131,108.909 C342.118,106.039 342.214,101.291 339.344,98.305 C319.431,77.576 296.04,61.269 269.822,49.84 C242.666,38.002 213.783,32 183.976,32 Z" id="Shape"></path>
            <path d="M15.507,125.404 C16.879,126.478 18.508,126.999 20.126,126.999 C22.353,126.999 24.557,126.012 26.036,124.123 C47.411,96.821 75.551,75.406 107.413,62.191 C111.239,60.604 113.055,56.216 111.468,52.39 C109.881,48.564 105.491,46.746 101.667,48.335 C67.426,62.536 37.189,85.545 14.226,114.874 C11.672,118.137 12.246,122.851 15.507,125.404 Z" id="Shape"></path>
            <path d="M79.983,38.725 C81.077,38.725 82.188,38.485 83.238,37.977 C114.816,22.73 148.709,15 183.976,15 C202.354,15 220.658,17.162 238.377,21.426 C242.402,22.392 246.454,19.916 247.423,15.889 C248.392,11.862 245.913,7.811 241.885,6.842 C223.019,2.302 203.535,0 183.976,0 C146.432,0 110.345,8.232 76.717,24.469 C72.987,26.27 71.423,30.754 73.224,34.484 C74.517,37.163 77.195,38.725 79.983,38.725 Z" id="Shape"></path>
            <path d="M269.724,31.383 C277.456,34.462 285.109,38.002 292.47,41.903 C293.589,42.497 294.791,42.778 295.975,42.778 C298.663,42.778 301.262,41.329 302.608,38.788 C304.547,35.128 303.153,30.589 299.493,28.649 C291.656,24.496 283.507,20.727 275.273,17.448 C271.424,15.915 267.063,17.793 265.53,21.64 C263.998,25.488 265.876,29.851 269.724,31.383 Z" id="Shape"></path>
        </g>
    </g>
</svg>
