
<svg width="481px" height="481px" viewBox="0 0 481 481" version="1.1" xmlns="http://www.w3.org/2000/svg" xmlns:xlink="http://www.w3.org/1999/xlink">
    <!-- Generator: Sketch 47.1 (45422) - http://www.bohemiancoding.com/sketch -->
    <desc>Created with Sketch.</desc>
    <defs></defs>
    <g id="Page-1" stroke="none" stroke-width="1" fill="none" fill-rule="evenodd">
        <g id="003-magnifying-glass" fill-rule="nonzero" fill="#003B46">
            <path d="M469.675,415.325 L369.475,315.125 L362.275,322.325 L351.175,311.225 C408.075,234.925 401.975,126.425 332.675,57.125 C256.475,-18.975 133.175,-18.975 57.075,57.125 C-19.025,133.225 -19.025,256.625 57.075,332.625 C126.375,401.925 234.875,408.125 311.175,351.125 L322.275,362.225 L315.075,369.425 L415.275,469.625 C430.275,484.625 454.675,484.625 469.675,469.625 C484.675,454.725 484.675,430.425 469.675,415.325 Z M290.275,290.325 C237.575,343.025 152.075,343.025 99.375,290.325 C46.675,237.625 46.675,152.125 99.375,99.425 C152.075,46.725 237.575,46.725 290.275,99.425 C342.975,152.125 342.975,237.625 290.275,290.325 Z" id="Shape"></path>
            <path d="M155.675,186.225 C157.675,199.125 167.675,215.625 184.075,221.425 C190.775,223.825 198.175,223.825 204.875,221.425 C220.975,215.625 231.275,199.225 233.275,186.325 C235.475,186.125 238.275,183.125 241.375,172.225 C245.575,157.325 241.075,155.125 237.375,155.525 C238.075,153.425 238.675,151.425 238.975,149.425 C245.375,110.925 226.375,109.525 226.375,109.525 C226.375,109.525 223.275,103.525 214.975,98.925 C209.475,95.625 201.675,93.125 191.475,93.925 C188.175,94.125 185.075,94.725 182.175,95.725 L182.175,95.725 C178.475,97.025 174.975,98.825 171.875,101.025 C168.075,103.425 164.475,106.425 161.275,109.725 C156.275,114.825 151.775,121.525 149.875,129.825 C148.275,136.025 148.575,142.425 149.975,149.425 L149.975,149.425 C150.375,151.425 150.875,153.525 151.575,155.525 C147.775,155.125 143.275,157.325 147.575,172.225 C150.675,183.025 153.575,186.125 155.675,186.225 Z" id="Shape"></path>
            <path d="M263.375,238.625 C240.775,230.025 227.275,221.125 227.275,221.125 L209.875,276.125 L207.475,283.625 L199.675,261.525 C217.575,236.525 198.275,235.325 194.975,235.325 L194.975,235.325 C194.975,235.325 194.975,235.325 194.875,235.325 C194.875,235.325 194.875,235.325 194.775,235.325 C194.775,235.325 194.775,235.325 194.675,235.325 C194.575,235.325 194.675,235.325 194.575,235.325 L194.575,235.325 C191.275,235.325 171.975,236.525 189.875,261.525 L182.075,283.625 L179.675,276.125 L162.275,221.125 C162.275,221.125 148.775,229.925 126.175,238.625 C113.975,243.025 108.175,250.225 105.275,260.825 C108.475,265.225 112.075,269.425 116.075,273.325 C159.475,316.725 229.775,316.725 273.175,273.325 C277.175,269.325 280.775,265.125 283.975,260.825 C281.375,250.225 275.475,243.025 263.375,238.625 Z" id="Shape"></path>
        </g>
    </g>
</svg>
