
<svg width="460px" height="392px" viewBox="0 0 460 392" version="1.1" xmlns="http://www.w3.org/2000/svg" xmlns:xlink="http://www.w3.org/1999/xlink">
    <!-- Generator: Sketch 47.1 (45422) - http://www.bohemiancoding.com/sketch -->
    <desc>Created with Sketch.</desc>
    <defs></defs>
    <g id="Page-1" stroke="none" stroke-width="1" fill="none" fill-rule="evenodd">
        <g id="004-weight-balance" fill-rule="nonzero" fill="#003B46">
            <path d="M279.27,358.188 L248.76,358.188 L248.76,78.579 L377.34,78.579 L322.876,165.002 C320.114,169.384 321.428,175.178 325.811,177.939 C327.365,178.919 329.093,179.384 330.803,179.384 C333.918,179.384 336.964,177.833 338.747,175.006 L385.982,100.052 L433.215,175.006 C435.978,179.388 441.772,180.702 446.153,177.939 C450.535,175.178 451.847,169.384 449.086,165.002 L394.624,78.579 L395.312,78.579 C403.341,78.579 409.851,72.069 409.851,64.04 C409.851,56.012 403.342,49.502 395.312,49.502 L288.356,49.502 C282.316,40.716 273.402,34.064 262.966,30.906 C261.475,14.005 247.289,0.75 230,0.75 C212.71,0.75 198.525,14.005 197.033,30.906 C186.597,34.064 177.683,40.716 171.644,49.502 L64.688,49.502 C56.658,49.502 50.148,56.012 50.148,64.04 C50.148,72.069 56.657,78.579 64.688,78.579 L65.376,78.579 L10.912,165.002 C8.15,169.384 9.464,175.178 13.846,177.939 C15.4,178.919 17.129,179.384 18.838,179.384 C21.952,179.384 25,177.833 26.783,175.006 L74.018,100.052 L121.252,175.006 C124.014,179.388 129.807,180.702 134.189,177.939 C138.572,175.178 139.885,169.384 137.124,165.002 L82.661,78.579 L211.241,78.579 L211.241,358.186 L180.732,358.186 C162.473,358.186 147.67,372.99 147.67,391.249 L312.331,391.249 C312.331,372.99 297.528,358.188 279.27,358.188 Z" id="Shape"></path>
            <path d="M143.035,189.359 L5,189.359 C2.239,189.359 0,191.597 0,194.359 C0,235.172 33.204,268.376 74.018,268.376 C114.831,268.376 148.036,235.172 148.036,194.359 C148.035,191.598 145.796,189.359 143.035,189.359 Z" id="Shape"></path>
            <path d="M455,189.359 L316.965,189.359 C314.204,189.359 311.965,191.597 311.965,194.359 C311.965,235.172 345.169,268.376 385.984,268.376 C426.797,268.376 460.001,235.172 460.001,194.359 C460,191.598 457.761,189.359 455,189.359 Z" id="Shape"></path>
        </g>
    </g>
</svg>
