
<svg width="431px" height="503px" viewBox="0 0 431 503" version="1.1" xmlns="http://www.w3.org/2000/svg" xmlns:xlink="http://www.w3.org/1999/xlink">
    <!-- Generator: Sketch 47.1 (45422) - http://www.bohemiancoding.com/sketch -->
    <desc>Created with Sketch.</desc>
    <defs></defs>
    <g id="Page-1" stroke="none" stroke-width="1" fill="none" fill-rule="evenodd">
        <g id="002-location-on-road" fill-rule="nonzero" fill="#003B46">
            <path d="M366.481,300.41 C366.514,300.359 366.549,300.312 366.583,300.262 C366.86,299.793 366.459,300.432 366.481,300.41 Z" id="Shape"></path>
            <path d="M366.581,199.504 C366.552,199.449 366.519,199.399 366.487,199.344 C366.551,199.457 366.63,199.598 366.688,199.703 C366.651,199.637 366.616,199.571 366.581,199.504 Z" id="Shape"></path>
            <path d="M370.079,55.139 C370.471,54.674 369.678,55.6 370.079,55.139 L370.079,55.139 Z" id="Shape"></path>
            <g id="Group" transform="translate(148.000000, 0.000000)">
                <path d="M108.844,383.368 C109.102,383.25 109.04,383.279 108.844,383.368 L108.844,383.368 Z" id="Shape"></path>
                <path d="M281.85,19.072 C280.676,16.668 279.502,14.263 278.329,11.857 C274.339,13.92 270.464,16.209 266.651,18.58 C264.483,19.93 262.339,21.32 260.213,22.736 L257.41,24.632 C256.551,23.329 255.689,22.027 254.832,20.722 L257.6,19.013 C259.893,17.62 262.204,16.253 264.539,14.935 C268.525,12.681 272.576,10.515 276.728,8.587 C275.931,6.952 275.132,5.317 274.333,3.683 C273.86,2.712 273.388,1.744 272.913,0.775 C272.546,0.023 272.683,-0.161 271.872,0.132 C264.601,2.757 257.481,5.782 250.517,9.13 C233.712,17.208 217.372,27.075 203.259,39.321 C188.613,52.028 175.605,66.702 166.685,84.042 C157.742,101.431 153.042,120.56 152.773,140.105 C152.64,149.957 153.919,159.626 155.714,169.289 C157.532,179.08 160.835,188.412 164.23,197.744 C166.548,204.476 170.191,210.697 172.736,217.348 C174.392,221.676 175.597,226.03 176.632,230.534 C177.585,234.682 177.765,239.305 177.275,243.528 C176.795,247.671 175.388,251.262 173.296,254.834 C171.099,258.582 167.747,261.821 164.544,264.711 C161.155,267.77 157.517,270.534 153.732,273.082 C137.591,283.938 119.212,291.352 100.832,297.45 C100.239,297.647 99.644,297.829 99.051,298.022 L61.275,375.927 C61.793,375.755 62.313,375.593 62.831,375.419 C71.932,372.39 80.983,369.204 89.934,365.749 C93.775,364.267 97.592,362.735 101.406,361.181 C101.719,361.052 102.456,360.733 102.456,360.733 C102.456,360.733 102.951,361.948 103.173,362.448 C105.111,366.844 107.046,371.235 108.985,375.631 C109.785,377.444 110.586,379.26 111.384,381.071 C111.522,381.384 111.658,381.7 111.798,382.011 C111.804,382.028 109.068,383.272 108.503,383.528 C108.632,383.468 108.753,383.414 108.849,383.369 C108.749,383.416 108.614,383.477 108.405,383.573 C93.39,390.457 78.041,396.621 62.515,402.246 C56.929,404.269 51.31,406.205 45.678,408.098 L0.654,500.95 C7.488,498.485 14.282,495.911 21.045,493.302 C39.064,486.343 56.869,478.82 74.402,470.714 C110.035,454.241 144.759,435.386 176.699,412.48 C207.224,390.464 236.023,364.261 255,331.366 C264.527,314.849 271.473,296.584 274.074,277.638 C276.734,258.28 274.91,238.448 268.886,219.866 C264.915,207.616 259.243,195.764 252.13,185.014 C248.972,180.241 245.646,175.645 242.183,171.094 C240.216,168.514 238.052,166.082 235.919,163.639 C232.714,159.965 230.079,155.78 227.46,151.686 C223.019,144.747 219.753,136.821 218.14,128.741 C216.148,118.768 216.853,108.782 219.478,99.001 C224.513,80.243 236.361,63.562 249.412,49.483 C257.433,40.827 266.232,32.858 275.586,25.665 C277.451,24.229 279.342,22.825 281.262,21.466 C282.758,20.401 282.6,20.608 281.85,19.072 Z M219.092,299.358 C219.092,299.358 218.891,299.739 218.582,300.261 C218.51,300.37 218.486,300.405 218.48,300.409 C210.095,313.134 200.226,324.339 188.72,334.352 C177.876,343.79 166.075,351.926 153.929,359.573 C150.339,353.46 146.749,347.344 143.159,341.229 C158.382,332.512 173.19,322.928 186.038,310.893 C192.368,304.961 197.985,298.508 203.065,291.485 L204.262,289.919 L219.092,299.358 L219.092,299.358 Z M218.489,199.344 C218.368,199.127 218.309,199.02 218.583,199.504 C218.837,199.963 218.798,199.895 218.688,199.703 C227.368,215.455 233.327,232.875 233.252,251.023 C228.006,250.923 222.758,250.822 217.512,250.722 C218.172,237.253 214.662,223.868 209.274,211.613 C206.292,204.828 202.508,198.447 198.831,192.025 C195.653,186.482 192.89,180.83 190.204,175.037 C192.243,174.117 194.282,173.197 196.321,172.279 C197.632,171.689 201.311,170.013 201.311,170.013 L201.643,170.708 C204.057,175.368 206.539,179.886 209.303,184.347 C212.393,189.333 215.608,194.237 218.489,199.344 Z M222.079,55.139 C212.952,65.653 204.78,76.782 199.069,89.559 C193.727,101.518 190.692,114.5 190.903,127.62 C187.501,127.571 184.096,127.522 180.692,127.474 C181.198,110.003 186.749,93.074 195.676,78.107 C200.211,70.5 205.58,63.5 211.371,56.814 C212.766,55.203 214.262,53.677 215.726,52.13 C216.253,51.575 217.869,49.778 217.869,49.778 C217.869,49.778 221.18,52.985 222.654,54.397 C222.674,54.415 222.689,54.432 222.709,54.45 C222.489,54.67 222.28,54.901 222.079,55.139 Z" id="Shape"></path>
            </g>
            <path d="M255.195,210.11 C255.195,139.76 197.962,82.526 127.612,82.526 C57.263,82.526 0.03,139.76 0.03,210.11 C0.03,230.725 4.951,250.21 13.67,267.463 L127.612,502.436 L241.572,267.426 C250.28,250.182 255.195,230.709 255.195,210.11 Z M127.612,280.711 C88.681,280.711 57.008,249.04 57.008,210.109 C57.008,171.177 88.682,139.504 127.612,139.504 C166.542,139.504 198.216,171.178 198.216,210.109 C198.215,249.04 166.542,280.711 127.612,280.711 Z" id="Shape"></path>
        </g>
    </g>
</svg>
